<svg id="svg" version="1.1" width="400" height="239.52095808383234" xmlns="http://www.w3.org/2000/svg" xmlns:xlink="http://www.w3.org/1999/xlink" style="display: block;">
  <g id="svgg">
    <path id="path0" d="M9.875 77.721 C 7.326 78.439,5.665 79.821,4.586 82.120 L 3.952 83.473 3.952 128.024 L 3.952 172.575 4.575 173.903 C 7.669 180.498,17.435 180.222,20.167 173.461 L 20.719 172.096 20.787 129.102 C 20.859 84.413,20.854 84.161,19.855 82.035 C 18.179 78.470,13.856 76.601,9.875 77.721 M151.210 105.645 C 133.491 107.360,121.464 119.585,119.769 137.605 C 119.414 141.384,119.432 192.293,119.790 194.073 C 121.534 202.760,134.186 203.177,136.397 194.620 C 136.704 193.433,136.766 191.289,136.766 181.866 C 136.766 169.261,136.706 169.647,138.334 171.781 C 145.146 180.713,163.344 182.496,175.920 175.463 C 195.478 164.525,199.692 133.293,183.848 116.699 C 176.029 108.510,163.933 104.413,151.210 105.645 M352.773 105.641 C 335.274 107.198,323.125 117.764,319.619 134.474 C 315.985 151.795,323.505 168.329,338.497 175.982 C 351.534 182.638,368.771 180.290,374.944 171.018 C 375.422 170.300,375.675 170.569,375.911 172.041 C 377.401 181.361,391.220 180.661,392.589 171.196 C 392.888 169.126,392.871 139.456,392.568 135.664 C 391.011 116.155,374.510 103.707,352.773 105.641 M42.515 106.923 C 39.103 108.005,37.279 110.138,36.646 113.790 C 36.184 116.455,36.453 151.362,36.957 154.139 C 39.778 169.669,49.992 178.354,67.006 179.690 C 84.668 181.077,98.250 173.312,102.705 159.281 C 104.300 154.260,104.311 154.070,104.311 132.455 L 104.311 112.934 103.616 111.427 C 100.556 104.802,90.588 105.051,87.853 111.821 L 87.306 113.174 87.172 131.856 C 87.023 152.738,87.113 151.623,85.248 155.650 C 80.245 166.450,61.037 166.631,55.756 155.928 C 53.780 151.922,53.821 152.408,53.669 131.497 L 53.533 112.934 52.837 111.427 C 51.108 107.682,46.484 105.664,42.515 106.923 M212.152 106.832 C 209.806 107.424,207.791 109.105,206.742 111.342 L 206.108 112.695 206.108 142.635 L 206.108 172.575 206.661 173.765 C 209.848 180.625,219.706 180.296,222.557 173.234 L 223.114 171.856 223.181 143.857 C 223.252 114.607,223.219 113.512,222.201 111.288 C 220.598 107.787,216.161 105.820,212.152 106.832 M244.487 106.847 C 242.183 107.390,240.131 109.095,239.077 111.342 L 238.443 112.695 238.371 129.701 C 238.275 152.267,238.678 155.268,242.728 162.158 C 252.056 178.028,279.344 179.765,288.786 165.090 C 289.846 163.442,290.060 163.503,290.059 165.449 C 290.050 181.043,276.939 189.001,259.641 183.911 C 254.292 182.338,253.088 182.242,250.886 183.215 C 245.996 185.375,244.902 193.369,249.059 196.567 C 254.648 200.867,274.806 202.110,284.671 198.763 C 294.446 195.447,301.450 188.598,304.554 179.323 C 306.303 174.094,306.228 175.748,306.228 142.635 L 306.228 112.934 305.532 111.427 C 302.315 104.462,292.107 105.112,289.499 112.448 C 289.328 112.928,289.196 119.178,289.110 130.898 L 288.979 148.623 288.316 150.299 C 285.974 156.221,280.754 159.210,272.335 159.450 C 263.022 159.716,258.368 156.711,256.232 149.053 C 255.726 147.242,255.706 146.680,255.570 130.299 C 255.413 111.425,255.483 112.183,253.677 109.788 C 251.744 107.225,247.987 106.023,244.487 106.847 M161.303 122.017 C 170.860 124.674,176.130 132.000,176.132 142.635 C 176.135 155.727,168.536 163.978,156.527 163.924 C 144.427 163.869,136.766 155.996,136.766 143.615 C 136.766 131.509,141.866 123.764,151.138 121.786 C 153.249 121.336,159.350 121.475,161.303 122.017 M362.395 121.911 C 371.413 123.762,375.558 129.878,375.566 141.346 C 375.576 156.059,369.167 163.623,356.647 163.674 C 344.359 163.724,336.520 156.058,336.112 143.593 C 335.606 128.120,346.971 118.744,362.395 121.911 " stroke="none" fill="#ffffff" fill-rule="evenodd"></path>
    <path id="path1" d="M245.238 36.758 C 245.160 36.836,243.984 37.115,242.624 37.379 C 236.944 38.480,228.899 41.928,225.105 44.887 C 224.751 45.163,223.942 45.766,223.308 46.228 C 222.675 46.689,222.022 47.174,221.859 47.305 C 221.187 47.849,216.040 53.108,215.531 53.772 C 215.228 54.168,214.843 54.634,214.675 54.808 C 214.507 54.983,214.026 55.630,213.606 56.246 C 213.186 56.861,212.755 57.401,212.649 57.445 C 212.542 57.489,212.455 57.651,212.454 57.804 C 212.454 57.958,212.125 58.569,211.724 59.162 C 211.062 60.142,208.623 64.937,208.623 65.259 C 208.623 65.334,208.413 65.851,208.157 66.410 C 206.017 71.077,205.403 74.870,205.396 83.473 C 205.386 95.512,204.699 94.680,214.732 94.798 C 229.976 94.977,242.652 89.307,251.819 78.209 C 252.365 77.547,252.947 76.864,253.113 76.689 C 253.278 76.515,253.413 76.293,253.413 76.196 C 253.413 76.098,253.604 75.810,253.837 75.554 C 254.574 74.747,256.897 71.071,257.536 69.701 C 257.873 68.976,258.474 67.683,258.870 66.826 C 259.559 65.339,260.781 61.943,260.973 60.983 C 261.023 60.733,261.171 60.194,261.301 59.785 C 262.450 56.186,263.072 43.569,262.246 40.599 C 262.100 40.072,261.910 39.156,261.825 38.563 C 261.584 36.879,261.188 36.800,252.570 36.699 C 248.616 36.653,245.316 36.680,245.238 36.758 " stroke="none" fill="#74a02d" fill-rule="evenodd"></path>
  </g>
</svg>